# xmcd
#
# Track frame offsets:
#	150
#	18444
#	34419
#	51129
#	70499
#	88816
#	104799
#	124661
#	140941
#	159429
#
# Disc length: 2368 seconds
#
# Revision: 0
# Processed by: cddbd v1.5.2PL0 Copyright (c) Steve Scherf et al.
# Submitted via: audiograbber 1.83.01
#
DISCID=96093e0a
DTITLE=James Blunt - Back To Bedlam [CD-R]
DYEAR=2005
DGENRE=Singer/Songwriter
TTITLE0=High
TTITLE1=You're Beautiful
TTITLE2=Wisemen
TTITLE3=Goodbye My Lover
TTITLE4=Tears And Rain
TTITLE5=Out Of My Mind
TTITLE6=So Long, Jimmy
TTITLE7=Billy
TTITLE8=Cry
TTITLE9=No Bravery
EXTD=
EXTT0=
EXTT1=
EXTT2=
EXTT3=
EXTT4=
EXTT5=
EXTT6=
EXTT7=
EXTT8=
EXTT9=
PLAYORDER=
